<?xml version="1.0" encoding="UTF-8" standalone="no"?>
<svg
   viewBox="0 0 41.4 26.514999"
   version="1.1"
   id="svg7"
   sodipodi:docname="Apple Pay logo small.svg"
   width="41.400002"
   height="26.514999"
   inkscape:version="1.3 (0e150ed6c4, 2023-07-21)"
   xmlns:inkscape="http://www.inkscape.org/namespaces/inkscape"
   xmlns:sodipodi="http://sodipodi.sourceforge.net/DTD/sodipodi-0.dtd"
   xmlns="http://www.w3.org/2000/svg"
   xmlns:svg="http://www.w3.org/2000/svg"
   xmlns:rdf="http://www.w3.org/1999/02/22-rdf-syntax-ns#"
   xmlns:cc="http://creativecommons.org/ns#"
   xmlns:dc="http://purl.org/dc/elements/1.1/">
  <sodipodi:namedview
     id="namedview7"
     pagecolor="#505050"
     bordercolor="#ffffff"
     borderopacity="1"
     inkscape:showpageshadow="0"
     inkscape:pageopacity="0"
     inkscape:pagecheckerboard="1"
     inkscape:deskcolor="#d1d1d1"
     inkscape:zoom="4"
     inkscape:cx="74.875"
     inkscape:cy="25.5"
     inkscape:window-width="1346"
     inkscape:window-height="1032"
     inkscape:window-x="5961"
     inkscape:window-y="35"
     inkscape:window-maximized="0"
     inkscape:current-layer="svg7" />
  <defs
     id="defs1">
    <style
       id="style1">.a{fill:#fff;}</style>
  </defs>
  <title
     id="title1">Apple Pay logo - Brandlogos.net</title>
  <path
     d="M 37.6875,0.005 H 3.2925 2.935 A 5.195,5.195 0 0 0 2.1575,0.0725 2.6275,2.6275 0 0 0 1.4075,0.3225 2.485,2.485 0 0 0 0.32,1.41 2.615,2.615 0 0 0 0.07,2.16 5.1625,5.1625 0 0 0 0,2.9375 c 0,0.12 0,0.25 0,0.3575 0,0.1075 0,0.2825 0,0.425 V 22.8 c 0,0.1425 0,0.2825 0,0.425 0,0.1425 0,0.25 0,0.3575 a 5.16,5.16 0 0 0 0.07,0.7775 2.615,2.615 0 0 0 0.25,0.75 2.485,2.485 0 0 0 1.0875,1.0875 2.6175,2.6175 0 0 0 0.75,0.25 5.235,5.235 0 0 0 0.7775,0.0675 H 3.2925 38.11 38.4675 a 5.25,5.25 0 0 0 0.7775,-0.0675 2.62,2.62 0 0 0 0.75,-0.25 2.485,2.485 0 0 0 1.0875,-1.0875 2.6,2.6 0 0 0 0.25,-0.75 5.1575,5.1575 0 0 0 0.0675,-0.7775 q 0,-0.1775 0,-0.3575 c 0,-0.1425 0,-0.2825 0,-0.425 V 3.715 c 0,-0.1425 0,-0.2825 0,-0.425 0,-0.1425 0,-0.25 0,-0.3575 A 5.16,5.16 0 0 0 41.3325,2.155 2.6,2.6 0 0 0 41.0825,1.405 2.485,2.485 0 0 0 39.995,0.3175 2.63,2.63 0 0 0 39.245,0.0675 5.21,5.21 0 0 0 38.4675,0 H 38.11 Z"
     id="path1"
     style="stroke-width:0.25" />
  <path
     class="a"
     d="m 37.6875,0.8925 h 0.4175 0.34 a 4.415,4.415 0 0 1 0.645,0.055 1.75,1.75 0 0 1 0.5,0.1625 1.6025,1.6025 0 0 1 0.7,0.7025 1.72,1.72 0 0 1 0.16,0.5 4.39,4.39 0 0 1 0.055,0.645 c 0,0.1125 0,0.225 0,0.34 0,0.115 0,0.2775 0,0.4175 v 19.08 c 0,0.14 0,0.2775 0,0.42 0,0.1425 0,0.225 0,0.3375 A 4.385,4.385 0 0 1 40.45,24.2 a 1.715,1.715 0 0 1 -0.16,0.5 1.6025,1.6025 0 0 1 -0.7025,0.7025 1.7275,1.7275 0 0 1 -0.5,0.1625 4.5,4.5 0 0 1 -0.6425,0.055 H 38.1 3.2975 2.96 a 4.5,4.5 0 0 1 -0.645,-0.055 1.735,1.735 0 0 1 -0.5,-0.1625 1.6025,1.6025 0 0 1 -0.7,-0.7 1.7325,1.7325 0 0 1 -0.1625,-0.5 4.3675,4.3675 0 0 1 -0.055,-0.645 c 0,-0.1125 0,-0.225 0,-0.3375 V 3.2975 c 0,-0.1125 0,-0.225 0,-0.34 A 4.3725,4.3725 0 0 1 0.9525,2.31 1.73,1.73 0 0 1 1.115,1.81 a 1.6025,1.6025 0 0 1 0.7,-0.7 1.75,1.75 0 0 1 0.5,-0.1625 4.4075,4.4075 0 0 1 0.645,-0.055 h 0.3375 34.39"
     id="path2"
     style="stroke-width:0.25" />
  <path
     d="M 11.31,8.92 A 2.31,2.31 0 0 0 11.8425,7.2725 2.29,2.29 0 0 0 10.325,8.0575 2.1625,2.1625 0 0 0 9.78,9.64 1.91,1.91 0 0 0 11.31,8.9175"
     id="path3"
     style="stroke-width:0.25" />
  <path
     d="m 11.8325,9.755 c -0.845,-0.05 -1.565,0.48 -1.9675,0.48 -0.4025,0 -1.0225,-0.455 -1.69,-0.4425 A 2.5,2.5 0 0 0 6.055,11.08 c -0.9075,1.565 -0.25,3.8875 0.6425,5.165 0.43,0.63 0.945,1.325 1.6275,1.3 0.6425,-0.025 0.895,-0.4175 1.6775,-0.4175 0.7825,0 1,0.4175 1.69,0.405 C 12.3825,17.52 12.84,16.9 13.27,16.27 a 5.605,5.605 0 0 0 0.7075,-1.4525 2.2925,2.2925 0 0 1 -1.375,-2.0825 2.3375,2.3375 0 0 1 1.11,-1.9575 2.4175,2.4175 0 0 0 -1.88,-1.0225"
     id="path4"
     style="stroke-width:0.25" />
  <path
     d="m 19.2025,8.005 c 1.8375,0 3.1175,1.2675 3.1175,3.11 0,1.8425 -1.305,3.125 -3.1625,3.125 h -2.035 v 3.235 h -1.47 v -9.47 z m -2.08,5 H 18.81 c 1.28,0 2,-0.69 2,-1.8825 0,-1.1925 -0.7275,-1.8775 -2,-1.8775 h -1.6925 z"
     id="path5"
     style="stroke-width:0.25" />
  <path
     d="m 22.7025,15.505 c 0,-1.2075 0.925,-1.95 2.5675,-2.0425 L 27.16,13.35 v -0.5325 c 0,-0.7675 -0.5175,-1.2275 -1.385,-1.2275 -0.82,0 -1.3325,0.3925 -1.4575,1 h -1.34 c 0.0775,-1.25 1.1425,-2.165 2.8475,-2.165 1.705,0 2.75,0.885 2.75,2.27 v 4.75 H 27.2025 V 16.33 H 27.17 a 2.4675,2.4675 0 0 1 -2.18,1.25 c -1.3475,0.005 -2.2875,-0.825 -2.2875,-2.075 z M 27.16,14.8825 v -0.545 l -1.7,0.105 c -0.8475,0.06 -1.325,0.4325 -1.325,1.025 0,0.5925 0.5,1 1.25,1 0.995,-0.005 1.77,-0.6875 1.77,-1.5875 z"
     id="path6"
     style="stroke-width:0.25" />
  <path
     d="m 29.8475,20.005 v -1.1475 a 2.625,2.625 0 0 0 0.46,0.025 c 0.6575,0 1,-0.275 1.2275,-0.985 0,-0.0125 0.125,-0.42 0.125,-0.4275 l -2.5,-6.9125 h 1.5425 l 1.75,5.6175 h 0.025 l 1.75,-5.6175 h 1.5 l -2.585,7.265 c -0.59,1.675 -1.2725,2.2125 -2.705,2.2125 a 5.4825,5.4825 0 0 1 -0.59,-0.03 z"
     id="path7"
     style="stroke-width:0.25" />
  <metadata
     id="metadata7">
    <rdf:RDF>
      <cc:Work
         rdf:about="">
        <dc:title>Apple Pay logo - Brandlogos.net</dc:title>
      </cc:Work>
    </rdf:RDF>
  </metadata>
</svg>
