<?xml version="1.0" encoding="UTF-8"?>
<svg width="350px" height="16px" viewBox="0 0 353 16" version="1.1" xmlns="http://www.w3.org/2000/svg" xmlns:xlink="http://www.w3.org/1999/xlink">
    <title>Porsche Design Logo</title>
    <g id="svg-logo-white" stroke="none" stroke-width="1" fill="none" fill-rule="evenodd">
        <g id="porsche-design-logo-white" fill="#FFFFFF" fill-rule="nonzero">
            <path d="M21.492,9.346 L4.074,9.346 L4.074,15.545 L0.515,15.545 L0.515,0.154 L21.493,0.154 C23.189,0.154 24.556,1.521 24.556,3.242 L24.556,6.259 C24.555,7.955 23.189,9.346 21.492,9.346 Z M20.997,3.807 C20.997,3.43 20.714,3.124 20.337,3.124 L4.074,3.124 L4.074,6.352 L20.337,6.352 C20.714,6.352 20.997,6.069 20.997,5.692 L20.997,3.807 Z" id="Shape"></path>
            <path d="M49.312,15.545 L30.929,15.545 C29.231,15.545 27.865,14.178 27.865,12.457 L27.865,3.242 C27.865,1.521 29.232,0.154 30.929,0.154 L49.313,0.154 C51.011,0.154 52.401,1.521 52.401,3.242 L52.401,12.457 C52.4,14.178 51.01,15.545 49.312,15.545 Z M48.817,3.807 C48.817,3.43 48.534,3.124 48.157,3.124 L32.084,3.124 C31.707,3.124 31.424,3.43 31.424,3.807 L31.424,11.892 C31.424,12.269 31.707,12.552 32.084,12.552 L48.158,12.552 C48.535,12.552 48.818,12.27 48.818,11.892 L48.818,3.807 L48.817,3.807 Z" id="Shape"></path>
            <path d="M77.11,15.545 L77.11,14.461 C77.11,10.996 75.625,9.346 72.585,9.346 L60.07,9.346 L60.07,15.545 L56.512,15.545 L56.512,0.154 L77.277,0.154 C78.997,0.154 80.364,1.521 80.364,3.242 L80.364,6.259 C80.364,7.46 79.564,8.427 78.478,8.781 C80.01,9.865 80.671,11.727 80.671,14.131 L80.671,15.545 L77.11,15.545 Z M76.804,3.807 C76.804,3.43 76.521,3.124 76.121,3.124 L60.07,3.124 L60.07,6.352 L76.121,6.352 C76.522,6.352 76.804,6.069 76.804,5.692 L76.804,3.807 Z" id="Shape"></path>
            <path d="M105.546,15.545 L84.568,15.545 L84.568,12.552 L104.391,12.552 C104.768,12.552 105.051,12.27 105.051,11.892 L105.051,10.006 C105.051,9.629 104.768,9.345 104.391,9.345 L87.632,9.345 C85.936,9.345 84.568,7.955 84.568,6.258 L84.568,3.242 C84.568,1.521 85.936,0.154 87.632,0.154 L108.138,0.154 L108.138,3.124 L88.787,3.124 C88.41,3.124 88.127,3.43 88.127,3.807 L88.127,5.693 C88.127,6.07 88.41,6.353 88.787,6.353 L105.545,6.353 C107.241,6.353 108.608001,7.744 108.608001,9.441 L108.608001,12.458 C108.609,14.178 107.242,15.545 105.546,15.545 Z" id="Path"></path>
            <path d="M115.807,15.545 C114.109,15.545 112.743,14.178 112.743,12.457 L112.743,3.242 C112.743,1.521 114.11,0.154 115.807,0.154 L135.841,0.154 L135.841,3.124 L116.962,3.124 C116.585,3.124 116.302,3.43 116.302,3.807 L116.302,11.892 C116.302,12.269 116.585,12.552 116.962,12.552 L135.841,12.552 L135.841,15.545 L115.807,15.545 Z" id="Path"></path>
            <polygon id="Path" points="159.089 15.545 159.089 9.346 143.133 9.346 143.133 15.545 139.574 15.545 139.574 0.154 143.133 0.154 143.133 6.352 159.089 6.352 159.089 0.154 162.648 0.154 162.648 15.545"></polygon>
            <polygon id="Path" points="166.924 15.545 166.924 0.154 190.965 0.154 190.965 3.124 170.484 3.124 170.484 6.352 190.495 6.352 190.495 9.345 170.484 9.345 170.484 12.551 190.965 12.551 190.965 15.544 166.924 15.544"></polygon>
            <path d="M228.241,15.545 L207.265,15.545 L207.265,0.154 L228.241,0.154 C229.891,0.154 231.305,1.473 231.305,3.124 L231.305,12.457 C231.305,14.178 229.939,15.545 228.241,15.545 Z M227.747,3.807 C227.747,3.43 227.463,3.124 227.087,3.124 L210.823,3.124 L210.823,12.552 L227.087,12.552 C227.463,12.552 227.747,12.27 227.747,11.892 L227.747,3.807 Z" id="Shape"></path>
            <polygon id="Path" points="235.463 15.545 235.463 0.154 259.504 0.154 259.504 3.124 239.023 3.124 239.023 6.352 259.034 6.352 259.034 9.345 239.023 9.345 239.023 12.551 259.504 12.551 259.504 15.544 235.463 15.544"></polygon>
            <path d="M284.52,15.545 L263.544,15.545 L263.544,12.552 L283.365,12.552 C283.743,12.552 284.025,12.27 284.025,11.892 L284.025,10.006 C284.025,9.629 283.744,9.345 283.365,9.345 L266.608,9.345 C264.91,9.345 263.544,7.955 263.544,6.258 L263.544,3.242 C263.544,1.521 264.911,0.154 266.608,0.154 L287.114,0.154 L287.114,3.124 L267.763,3.124 C267.385,3.124 267.103,3.43 267.103,3.807 L267.103,5.693 C267.103,6.07 267.384,6.353 267.763,6.353 L284.52,6.353 C286.218,6.353 287.584,7.744 287.584,9.441 L287.584,12.458 C287.584,14.178 286.218,15.545 284.52,15.545 Z" id="Path"></path>
            <polygon id="Path" points="292.096 15.545 292.096 0.154 295.655 0.154 295.655 15.545"></polygon>
            <path d="M320.994,15.545 L303.105,15.545 C301.409,15.545 300.041,14.178 300.041,12.457 L300.041,3.242 C300.041,1.521 301.409,0.154 303.105,0.154 L324.083,0.154 L324.083,3.124 L304.26,3.124 C303.883,3.124 303.6,3.43 303.6,3.807 L303.6,11.892 C303.6,12.269 303.883,12.552 304.26,12.552 L319.863,12.552 C320.239,12.552 320.523,12.27 320.523,11.892 L320.523,9.345 L312.416,9.345 L312.416,6.352 L324.083,6.352 L324.083,12.457 C324.083,14.178 322.715,15.545 320.994,15.545 Z" id="Path"></path>
            <polygon id="Path" points="348.816 15.545 331.894 3.997 331.894 15.546 328.334 15.546 328.334 0.154 331.894 0.154 348.815 11.703 348.815 0.154 352.375 0.154 352.375 15.545"></polygon>
        </g>
    </g>
</svg>